<svg width="148" height="30" viewBox="0 0 148 30" fill="none" xmlns="http://www.w3.org/2000/svg">
<path d="M0.68 29V0.599998H11.32C14.76 0.599998 17.4667 1.26667 19.44 2.6C21.44 3.93333 22.44 5.90667 22.44 8.52C22.44 9.8 22.1467 10.9733 21.56 12.04C20.9733 13.1067 20.16 13.9467 19.12 14.56C20.2667 15.0933 21.2 15.8933 21.92 16.96C22.64 18 23 19.24 23 20.68C23 22.3333 22.56 23.7867 21.68 25.04C20.8 26.2933 19.5467 27.2667 17.92 27.96C16.2933 28.6533 14.36 29 12.12 29H0.68ZM11.44 5.92H7.08V12.04H11.04C12.72 12.04 13.9467 11.7867 14.72 11.28C15.52 10.7733 15.92 9.97333 15.92 8.88C15.92 7.89333 15.56 7.16 14.84 6.68C14.12 6.17333 12.9867 5.92 11.44 5.92ZM7.08 23.68H12.04C13.4267 23.68 14.5067 23.4267 15.28 22.92C16.08 22.3867 16.48 21.56 16.48 20.44C16.48 19.3733 16.1333 18.6 15.44 18.12C14.7467 17.64 13.6133 17.4 12.04 17.4H7.08V23.68ZM32.6213 29.4C30.2746 29.4 28.5013 28.6 27.3013 27C26.1013 25.4 25.5146 23.1733 25.5413 20.32L25.6213 8.64H31.7413L31.6613 19.84C31.6613 21.04 31.8746 21.9867 32.3013 22.68C32.728 23.3733 33.3946 23.72 34.3013 23.72C35.0746 23.72 35.7813 23.48 36.4213 23C37.0613 22.52 37.6213 21.72 38.1013 20.6C38.5813 19.48 38.9546 17.9467 39.2213 16C39.5146 14.0533 39.6746 11.6 39.7013 8.64H45.6213V29H39.5013L39.7813 25.08C38.9813 26.4667 37.968 27.5333 36.7413 28.28C35.5146 29.0267 34.1413 29.4 32.6213 29.4ZM59.1182 29.4C56.6115 29.4 54.6249 28.7067 53.1582 27.32C51.6915 25.9067 50.9715 24.0533 50.9982 21.76L51.1582 13.72H47.7982V8.64H51.2382L51.2782 4.48H57.3582L57.3182 8.64H63.6782V13.72H57.2382L57.1182 21.08C57.1182 22.04 57.3715 22.7867 57.8782 23.32C58.3849 23.8533 59.1449 24.12 60.1582 24.12C60.7449 24.12 61.3049 24.0533 61.8382 23.92C62.3982 23.76 62.9715 23.4667 63.5582 23.04L65.3182 27.72C63.9582 28.84 61.8915 29.4 59.1182 29.4ZM75.4798 29.4C72.9732 29.4 70.9865 28.7067 69.5198 27.32C68.0532 25.9067 67.3332 24.0533 67.3598 21.76L67.5198 13.72H64.1598V8.64H67.5998L67.6398 4.48H73.7198L73.6798 8.64H80.0398V13.72H73.5998L73.4798 21.08C73.4798 22.04 73.7332 22.7867 74.2398 23.32C74.7465 23.8533 75.5065 24.12 76.5198 24.12C77.1065 24.12 77.6665 24.0533 78.1998 23.92C78.7598 23.76 79.3332 23.4667 79.9198 23.04L81.6798 27.72C80.3198 28.84 78.2532 29.4 75.4798 29.4ZM92.6414 8.32C95.8148 8.32 98.2948 9.22667 100.081 11.04C101.895 12.8533 102.801 15.3067 102.801 18.4C102.801 20.5067 102.348 22.3867 101.441 24.04C100.535 25.6933 99.2548 27 97.6014 27.96C95.9481 28.92 94.0014 29.4 91.7614 29.4C88.6148 29.4 86.1348 28.4933 84.3214 26.68C82.5348 24.8667 81.6414 22.4267 81.6414 19.36C81.6414 17.2267 82.0948 15.3333 83.0014 13.68C83.9081 12.0267 85.1881 10.72 86.8414 9.76C88.4948 8.8 90.4281 8.32 92.6414 8.32ZM92.0414 24.08C93.4014 24.08 94.4814 23.5733 95.2814 22.56C96.1081 21.52 96.5214 20.1333 96.5214 18.4C96.5214 16.9067 96.1614 15.7467 95.4414 14.92C94.7214 14.0667 93.7348 13.64 92.4814 13.64C91.0948 13.64 89.9881 14.16 89.1614 15.2C88.3614 16.2133 87.9614 17.5867 87.9614 19.32C87.9614 20.8133 88.3081 21.9867 89.0014 22.84C89.7214 23.6667 90.7348 24.08 92.0414 24.08ZM106.152 29V8.64H112.232L111.952 13C112.779 11.5067 113.832 10.36 115.112 9.56C116.419 8.73333 117.872 8.32 119.472 8.32C121.899 8.32 123.712 9.14667 124.912 10.8C126.112 12.4267 126.699 14.7733 126.672 17.84L126.592 29H120.472L120.552 18.28C120.579 16.8933 120.366 15.84 119.912 15.12C119.486 14.3733 118.792 14 117.832 14C117.032 14 116.299 14.24 115.632 14.72C114.966 15.1733 114.379 15.96 113.872 17.08C113.392 18.2 113.006 19.7333 112.712 21.68C112.419 23.6267 112.259 26.0667 112.232 29H106.152ZM138.197 29.4C135.237 29.4 132.997 28.8533 131.477 27.76C129.957 26.64 129.064 25.1733 128.797 23.36L133.877 22.08C134.037 22.8533 134.477 23.48 135.197 23.96C135.917 24.4133 136.904 24.64 138.157 24.64C140.157 24.64 141.157 24.1733 141.157 23.24C141.157 22.76 140.864 22.4 140.277 22.16C139.717 21.8933 138.797 21.64 137.517 21.4C135.117 20.9733 133.25 20.2933 131.917 19.36C130.61 18.4267 129.957 17 129.957 15.08C129.957 13.7733 130.33 12.6133 131.077 11.6C131.824 10.5867 132.85 9.78667 134.157 9.2C135.464 8.61333 136.97 8.32 138.677 8.32C140.89 8.32 142.717 8.84 144.157 9.88C145.624 10.92 146.49 12.2 146.757 13.72L141.757 15.08C141.57 14.4933 141.197 14.0133 140.637 13.64C140.104 13.2667 139.37 13.08 138.437 13.08C137.557 13.08 136.904 13.2267 136.477 13.52C136.077 13.8133 135.877 14.16 135.877 14.56C135.877 15.04 136.157 15.4267 136.717 15.72C137.277 15.9867 138.264 16.2667 139.677 16.56C141.117 16.8267 142.384 17.2 143.477 17.68C144.597 18.1333 145.464 18.7733 146.077 19.6C146.717 20.4 147.037 21.4933 147.037 22.88C147.037 24.1867 146.65 25.3333 145.877 26.32C145.13 27.3067 144.09 28.0667 142.757 28.6C141.424 29.1333 139.904 29.4 138.197 29.4Z" fill="#012F34"/>
</svg>
